# xmcd
#
# Track frame offsets: 
#        150
#        16852
#        45496
#        81540
#        110435
#        136347
#
# Disc length: 2197 seconds
#
# Revision: 0
# Processed by: cddbd v1.5.2PL0 Copyright (c) Steve Scherf et al.
# Submitted via: ExactAudioCopy v0.99pb5
#
DISCID=45089306
DTITLE=Maximum Spell - I See U
DYEAR=2008
DGENRE=Trance
TTITLE0=I See U (Radio Edit)
TTITLE1=I See U (Extended Mix)
TTITLE2=I See U (Scooter Remix)
TTITLE3=I See U (KB Project Remix)
TTITLE4=I See U (Frisco Remix)
TTITLE5=I See U (Micky Modelle Remix)
EXTD=
EXTT0=
EXTT1=
EXTT2=
EXTT3=
EXTT4=
EXTT5=
PLAYORDER=
